<?xml version="1.0" encoding="UTF-8" standalone="no"?>
<svg
   xmlns:ns="&amp;#38;#38;#38;#38;#38;#38;ns_sfw;"
   xmlns:dc="http://purl.org/dc/elements/1.1/"
   xmlns:cc="http://creativecommons.org/ns#"
   xmlns:rdf="http://www.w3.org/1999/02/22-rdf-syntax-ns#"
   xmlns:svg="http://www.w3.org/2000/svg"
   xmlns="http://www.w3.org/2000/svg"
   xmlns:sodipodi="http://sodipodi.sourceforge.net/DTD/sodipodi-0.dtd"
   xmlns:inkscape="http://www.inkscape.org/namespaces/inkscape"
   version="1.1"
   id="svg2"
   x="0px"
   y="0px"
   width="253.14752"
   height="109.20614"
   viewBox="0.25 0 253.14752 109.20615"
   enable-background="new 0.25 0 567.927 113.032"
   xml:space="preserve"
   inkscape:version="1.0.1 (3bc2e813f5, 2020-09-07)"
   sodipodi:docname="cps1.svg"><defs
     id="defs21" /><sodipodi:namedview
     pagecolor="#000000"
     bordercolor="#666666"
     borderopacity="1"
     objecttolerance="10"
     gridtolerance="10"
     guidetolerance="10"
     inkscape:pageopacity="0"
     inkscape:pageshadow="2"
     inkscape:window-width="1920"
     inkscape:window-height="1017"
     id="namedview19"
     showgrid="false"
     inkscape:zoom="6.1233549"
     inkscape:cx="129.89588"
     inkscape:cy="58.759918"
     inkscape:window-x="939"
     inkscape:window-y="760"
     inkscape:window-maximized="1"
     inkscape:current-layer="svg2"
     fit-margin-top="0"
     fit-margin-left="0"
     fit-margin-right="0"
     fit-margin-bottom="0"
     inkscape:document-rotation="0"
     inkscape:snap-global="true"
     inkscape:object-nodes="true"
     inkscape:pagecheckerboard="false"
     showguides="true"
     inkscape:guide-bbox="true"
     inkscape:lockguides="false"
     inkscape:snap-bbox="false"><sodipodi:guide
       position="124.93152,116.06513"
       orientation="1,0"
       id="guide1965"
       inkscape:locked="false" /></sodipodi:namedview><metadata
     id="metadata3"><ns:sfw><ns:slices /><ns:sliceSourceBounds
         x="677.036"
         y="482.984"
         width="567.927"
         height="113.032"
         bottomLeftOrigin="true" /></ns:sfw><rdf:RDF><cc:Work
         rdf:about=""><dc:format>image/svg+xml</dc:format><dc:type
           rdf:resource="http://purl.org/dc/dcmitype/StillImage" /><dc:title></dc:title></cc:Work></rdf:RDF></metadata><path
     id="path472"
     style="color:#000000;clip-rule:nonzero;display:inline;overflow:visible;visibility:visible;isolation:auto;mix-blend-mode:normal;color-interpolation:sRGB;color-interpolation-filters:linearRGB;solid-color:#000000;solid-opacity:1;fill:#ffffff;fill-opacity:1;fill-rule:evenodd;stroke:none;stroke-width:0.333176px;stroke-linecap:butt;stroke-linejoin:miter;stroke-miterlimit:4;stroke-dasharray:none;stroke-dashoffset:0;stroke-opacity:1;color-rendering:auto;image-rendering:auto;shape-rendering:auto;text-rendering:auto;enable-background:accumulate"
     d="M 118.91797 46.123047 C 117.36711 47.185298 115.74609 48.144905 114.07227 49.001953 L 114.07227 67.308594 C 121.2252 67.308731 128.37831 67.308326 135.53125 67.308594 L 135.53125 62.689453 C 134.16943 62.200641 132.84149 61.613166 131.5625 60.919922 C 125.68024 57.811366 121.0629 52.423672 118.91797 46.123047 z M 114.07227 91.849609 L 114.07227 93.234375 C 114.07227 98.473956 104.37071 102.69336 92.318359 102.69336 L 92.167969 102.69336 L 92.167969 108.4668 L 120.95508 108.4668 L 128.65039 108.4668 L 157.43555 108.4668 L 157.43555 102.69336 L 157.28516 102.69336 C 145.23282 102.69336 135.53125 98.473956 135.53125 93.234375 L 135.53125 91.849609 C 128.37831 91.849477 121.22521 91.849876 114.07227 91.849609 z "
     transform="translate(0.25)" /><path
     id="rect4789"
     style="color:#000000;clip-rule:nonzero;display:inline;overflow:visible;visibility:visible;isolation:auto;mix-blend-mode:normal;color-interpolation:sRGB;color-interpolation-filters:linearRGB;solid-color:#000000;solid-opacity:1;fill:#ffffff;fill-opacity:1;fill-rule:evenodd;stroke:none;stroke-width:0.333176px;stroke-linecap:butt;stroke-linejoin:miter;stroke-miterlimit:4;stroke-dasharray:none;stroke-dashoffset:0;stroke-opacity:1;color-rendering:auto;image-rendering:auto;shape-rendering:auto;text-rendering:auto;enable-background:accumulate"
     d="m 27.195312,69.304688 c -5.282278,0 -9.535156,4.250926 -9.535156,9.533203 v 1.482421 c 0,5.282286 4.252878,9.533204 9.535156,9.533204 H 222.45117 c 5.28229,0 9.53516,-4.250918 9.53516,-9.533204 v -1.482421 c 0,-5.282277 -4.25287,-9.533203 -9.53516,-9.533203 z m 93.904298,5.542968 c 0.601,0 1.19269,0.05916 1.77734,0.177735 0.58874,0.114472 1.09806,0.259741 1.52735,0.435547 l -0.99219,1.632812 c -0.19074,-0.09649 -0.39461,-0.185501 -0.61328,-0.265625 -0.5315,-0.200338 -1.07678,-0.300781 -1.63281,-0.300781 -0.19625,0 -0.3916,0.01434 -0.5879,0.04297 -0.19216,0.02451 -0.3787,0.07485 -0.55859,0.148438 -0.15945,0.06131 -0.29568,0.154501 -0.41015,0.28125 -0.11453,0.122649 -0.17188,0.264381 -0.17188,0.423828 0,0.241221 0.0914,0.427761 0.27539,0.558594 0.18399,0.126741 0.53191,0.243306 1.04297,0.349609 0.33525,0.06947 0.65626,0.13576 0.96289,0.201172 0.31073,0.06543 0.64431,0.155059 1,0.269531 0.69913,0.22896 1.21376,0.542873 1.54492,0.939454 0.33526,0.392491 0.50201,0.903583 0.50195,1.533203 0,0.899462 -0.38194,1.631105 -1.14648,2.195312 -0.76045,0.560123 -1.79326,0.839844 -3.10156,0.839844 -0.75637,0 -1.41822,-0.06645 -1.98242,-0.197266 -0.56013,-0.134925 -1.08556,-0.30339 -1.57618,-0.507812 l 0.75782,-1.763672 c 0.296,0.169156 0.80021,0.354037 1.13086,0.46875 0.60509,0.208514 1.18615,0.3125 1.74218,0.3125 0.14311,0 0.33142,-0.01065 0.56446,-0.03516 0.23304,-0.02451 0.42312,-0.06583 0.57031,-0.123047 0.17989,-0.0736 0.32693,-0.165003 0.44141,-0.275391 0.11856,-0.110388 0.17773,-0.275497 0.17773,-0.492187 0,-0.20033 -0.0861,-0.370578 -0.25781,-0.513672 -0.16763,-0.147186 -0.41511,-0.260217 -0.74219,-0.337891 -0.34343,-0.08177 -0.70553,-0.157058 -1.08984,-0.226562 -0.38023,-0.0736 -0.73898,-0.166956 -1.07422,-0.277344 -0.76864,-0.249397 -1.32277,-0.586521 -1.66211,-1.011719 -0.33526,-0.429289 -0.5019,-0.960038 -0.50196,-1.59375 0,-0.850395 0.38019,-1.54254 1.14063,-2.078125 0.76454,-0.539677 1.74544,-0.810547 2.94336,-0.810547 z m 22.19336,0 c 0.601,0 1.19465,0.05916 1.7793,0.177735 0.58874,0.114472 1.09805,0.259743 1.52734,0.435547 l -0.99219,1.632812 c -0.19073,-0.09649 -0.39656,-0.185501 -0.61523,-0.265625 -0.5315,-0.200338 -1.07484,-0.300781 -1.63086,-0.300781 -0.19626,0 -0.39165,0.01434 -0.58789,0.04297 -0.19216,0.02451 -0.37871,0.07485 -0.5586,0.148438 -0.15945,0.06131 -0.29763,0.154501 -0.41211,0.28125 -0.11448,0.122649 -0.16992,0.264381 -0.16992,0.423828 0,0.241221 0.0914,0.427761 0.27539,0.558594 0.18398,0.126741 0.53192,0.243306 1.04297,0.349609 0.33526,0.06947 0.65626,0.13576 0.96289,0.201172 0.31072,0.06543 0.64235,0.155059 0.99805,0.269531 0.69912,0.22896 1.2157,0.542875 1.54687,0.939454 0.33525,0.392491 0.50196,0.903583 0.50196,1.533203 0,0.899462 -0.38194,1.631105 -1.14649,2.195312 -0.76044,0.560123 -1.79521,0.839844 -3.10351,0.839844 -0.75637,0 -1.41626,-0.06645 -1.98047,-0.197266 -0.56012,-0.134925 -1.08556,-0.30339 -1.57617,-0.507812 l 0.75586,-1.763672 c 0.29599,0.169156 0.80217,0.354037 1.13281,0.46875 0.60509,0.208514 1.18616,0.3125 1.74219,0.3125 0.14309,0 0.33141,-0.01065 0.56445,-0.03516 0.23304,-0.02451 0.42313,-0.06583 0.57031,-0.123047 0.17989,-0.0736 0.32694,-0.165003 0.44141,-0.275391 0.11857,-0.110388 0.17773,-0.275497 0.17773,-0.492187 0,-0.20033 -0.0861,-0.370578 -0.25781,-0.513672 -0.16763,-0.147186 -0.41512,-0.260217 -0.74219,-0.337891 -0.34343,-0.08177 -0.70748,-0.157058 -1.09179,-0.226562 -0.38023,-0.0736 -0.73701,-0.166956 -1.07227,-0.277344 -0.76863,-0.249397 -1.32276,-0.586521 -1.66211,-1.011719 -0.33525,-0.429289 -0.50391,-0.960038 -0.50391,-1.59375 0,-0.850395 0.38018,-1.54254 1.14063,-2.078125 0.76454,-0.539677 1.74545,-0.810547 2.94336,-0.810547 z m -77.427736,0.332032 h 3.875 c 0.58056,0 1.070219,0.05013 1.466797,0.152343 0.400671,0.09812 0.753914,0.246936 1.060547,0.447266 0.367964,0.24122 0.647688,0.549643 0.839844,0.925781 0.196243,0.376138 0.294922,0.82806 0.294922,1.355469 0,0.408849 -0.07175,0.810634 -0.214844,1.203125 -0.143097,0.388399 -0.347534,0.714716 -0.613281,0.980469 -0.363872,0.359784 -0.770974,0.632429 -1.220703,0.816406 -0.445643,0.183982 -1.001551,0.275382 -1.667969,0.275391 H 68.21875 v 2.974609 h -2.353516 z m 11.541016,0 h 2.355469 v 7.365234 h 4.230469 v 1.765625 H 77.40625 Z m 12.220703,0 h 2.710938 l 4.166015,9.130859 h -2.433594 l -0.78125,-1.845703 h -4.630859 l -0.824219,1.845703 h -2.373046 z m 8.937497,0 h 2.67383 l 2.15234,3.53125 2.05469,-3.53125 h 2.58789 l -3.51562,5.597656 v 3.533203 h -2.35352 v -3.421875 z m 28.89453,0 h 2.67383 l 2.15235,3.53125 2.05468,-3.53125 h 2.58789 l -3.51367,5.597656 v 3.533203 h -2.35547 v -3.421875 z m 22.54688,0 h 8.05859 v 1.765624 h -2.85156 v 7.365235 h -2.35351 v -7.365235 h -2.85352 z m 11.04687,0 h 7.02344 v 1.765624 h -4.67969 v 1.576172 h 4.37305 v 1.765625 h -4.37305 v 2.257813 h 4.67969 v 1.765625 h -7.02344 z m 11.10938,0 h 2.29492 l 3.35156,6.310546 3.34375,-6.310546 h 2.29493 l 0.33593,9.130859 h -2.46875 l -0.20898,-4.400391 -2.54883,4.398438 h -1.625 l -2.54883,-4.398438 -0.21093,4.400391 h -2.34571 z M 68.21875,76.884766 v 2.734375 h 0.675781 c 0.400671,0 0.728755,-0.02515 0.986328,-0.07422 0.261661,-0.04906 0.480448,-0.145785 0.65625,-0.292969 0.151271,-0.13083 0.26076,-0.286902 0.326172,-0.466797 0.0695,-0.183977 0.103516,-0.406308 0.103516,-0.667968 0,-0.257583 -0.06997,-0.478128 -0.208985,-0.66211 -0.139009,-0.188069 -0.300398,-0.318986 -0.484374,-0.392578 -0.245322,-0.09812 -0.483756,-0.151982 -0.716797,-0.160156 -0.233042,-0.01224 -0.543237,-0.01758 -0.931641,-0.01758 z m 22.732422,0.630859 -1.619141,3.275391 h 3.253907 z" /><path
     style="color:#000000;clip-rule:nonzero;display:inline;overflow:visible;visibility:visible;isolation:auto;mix-blend-mode:normal;color-interpolation:sRGB;color-interpolation-filters:linearRGB;solid-color:#000000;solid-opacity:1;fill:#ffffff;fill-opacity:1;fill-rule:evenodd;stroke:none;stroke-width:0.333176px;stroke-linecap:butt;stroke-linejoin:miter;stroke-miterlimit:4;stroke-dasharray:none;stroke-dashoffset:0;stroke-opacity:1;color-rendering:auto;image-rendering:auto;shape-rendering:auto;text-rendering:auto;enable-background:accumulate"
     d="M 92.167969,-0.02929688 V 5.7460938 h 0.15039 c 0.47438,0 21.753911,0.3976135 21.753911,9.4570312 v 0.933594 c 0.40779,0.103523 0.81669,0.197452 1.2207,0.326172 3.30075,0.99468 6.07689,3.327238 7.88476,6.232421 1.88867,-2.117864 4.08943,-3.972762 6.5625,-5.373046 1.82649,-1.060812 3.78382,-1.826673 5.8086,-2.347657 0.36252,-8.8327008 21.26606,-9.2285153 21.73633,-9.2285152 h 0.15039 v -5.77539068 h -28.78516 -7.69531 z"
     transform="translate(0.25)"
     id="path4785" /><path
     id="path4815"
     style="clip-rule:evenodd;opacity:1;fill:#ffffff;fill-opacity:1;fill-rule:evenodd;stroke-width:0.333176"
     d="m 182.84948,16.057183 c -7.55538,0 -15.81347,2.84204 -20.94336,8.97461 -3.67295,-5.567678 -10.10454,-8.917965 -19.19336,-8.917965 -8.83461,0 -15.03097,3.989226 -19.53125,10.04883 -3.25987,-5.871309 -6.14231,-8.917973 -17.38476,-8.917973 H 84.122914 v 9.931643 c 0,0 1.032606,0.290412 1.638676,0.988276 0.368389,0.42249 0.445308,1.071738 0.445308,1.660163 0,0.590775 -0.05275,21.624999 -0.05275,21.624999 -0.902644,-0.451905 -1.804689,-2.142581 -1.804689,-2.142581 L 71.931495,17.244685 H 56.462756 L 42.94128,52.918515 v -7.980468 h -9.619144 c 0,0 -1.126765,3.460939 -5.419917,3.460939 -4.622674,0 -8.806699,-3.836602 -9.07031,-10.60938 -0.224782,-5.871309 4.964441,-8.861041 6.814447,-7.451169 2.372536,1.807645 -0.228516,4.28906 -0.228516,4.28906 l 7.904296,5.419924 11.968753,-12.642577 c 0,0 -5.757568,-11.179687 -20.322263,-11.179687 -15.239038,0 -24.4316403,10.838643 -24.4316403,23.595701 0,12.755883 11.7910693,22.803118 26.4687503,22.800784 h 79.246084 v -9.509767 c 0,0 -2.53906,-0.422716 -2.53906,-1.61133 0,-0.651986 0.29903,-0.878332 0.90039,-1.013669 7.72956,-1.733512 14.17703,-6.334332 15.63867,-7.732425 3.08336,12.832374 14.12102,19.869144 26.98047,19.869144 h 14.44727 v -7.902343 c 0,0 8.20823,9.031247 20.49219,9.031247 9.59839,0 17.04492,-6.550782 17.04492,-6.550782 v 5.445311 h 20.37695 v -8.376951 h 12.41602 v 8.353518 h 21.67578 V 51.565001 c 0,0 -0.84307,0.1047 -1.4668,-0.453127 -0.53782,-0.477797 -0.76079,-1.130164 -0.88672,-1.753902 l -3.00781,-19.187501 c 0,0 -0.0588,-1.765246 0.27539,-2.318366 0.34364,-0.560185 1.5879,-0.902341 1.5879,-0.902341 v -9.705079 h -21.56251 l -1.63867,5.583985 -2.20117,-5.583985 h -20.88282 v 10.271488 c -4.01305,-6.958716 -11.76739,-11.45899 -21.05273,-11.45899 z m -0.84766,4.357421 c 11.96269,0 20.95313,8.397917 20.95313,19.240241 0,10.834077 -8.76448,19.73828 -20.95313,19.73828 -12.19451,0 -20.95898,-8.903021 -20.95898,-19.73828 0,-10.842324 8.9916,-19.240241 20.95898,-19.240241 z M 24.744015,20.527886 c 9.257103,7.78e-4 14.843749,7.074222 14.843749,7.074222 l -6.374997,6.685544 c 0,0 -0.339829,0.171879 -0.621093,0.171879 -0.283628,0 -0.67969,-0.285161 -0.67969,-0.285161 l -0.789059,-0.673825 c 0,0 -0.226563,-0.05493 -0.226563,-0.2832 0,-0.222417 0.621093,-0.791175 0.621093,-1.863286 0,-1.073286 -0.225584,-5.531254 -7.111332,-5.531246 -6.885757,0 -9.933596,6.433804 -9.933596,11.740229 0,5.306425 3.271835,15.013676 14.000006,15.013676 6.238484,0 7.560545,-3.501955 7.560545,-3.501955 h 2.144534 v 9.14649 H 26.437375 c -13.997469,0 -21.7871083,-10.952143 -21.7871083,-18.853522 0,-12.115675 10.5341903,-18.839845 20.0937483,-18.839845 z m 119.548825,0.06442 c 9.25828,0 14.84766,7.074222 14.84766,7.074222 l -6.37891,6.685543 c 0,0 -0.33865,0.169919 -0.62109,0.169919 -0.28009,0 -0.67579,-0.281248 -0.67579,-0.281248 l -0.79296,-0.679682 c 0,0 -0.22461,-0.05251 -0.22461,-0.27735 0,-0.227124 0.61914,-0.795874 0.61914,-1.863279 0,-1.074461 -0.22127,-5.533206 -7.10938,-5.533206 -6.8881,0 -9.93554,6.432645 -9.93554,11.740237 0,5.302885 3.27298,15.013675 14,15.013675 6.23848,0 7.56247,-3.501954 7.5625,-3.501954 h 2.14648 v 9.144529 H 145.9862 c -13.99628,0 -21.78906,-10.949015 -21.78906,-18.851561 0,-12.114493 10.53497,-18.839845 20.0957,-18.839845 z m -84.94727,0.941403 h 9.652348 L 80.7401,52.240739 c 0.336585,0.843805 0.901142,1.639345 1.464851,2.3125 0.562535,0.677862 1.917963,1.132817 1.917963,1.132817 v 2.648432 H 69.958856 v -2.708982 c 0,0 0.900426,0.116238 1.353514,-0.675777 0.450739,-0.790848 0.45182,-1.411506 0.115235,-2.201171 -0.338927,-0.792015 -2.714848,-7.054695 -2.714848,-7.054695 H 57.144399 c 0,0 -2.369339,6.321052 -2.597653,6.884768 -0.225949,0.563717 -0.225949,1.468726 0,2.031253 0.375422,0.939139 1.69336,1.076172 1.69336,1.076172 v 2.650385 H 44.894407 v -2.650385 c 0,0 1.030318,-0.354144 1.804687,-1.130864 0.846147,-0.846155 1.128904,-1.75195 1.128904,-1.75195 z m 29.292968,0 h 18.062502 c 6.66097,0 13.32028,2.368328 13.32032,10.044925 0,7.676604 -4.85383,10.389157 -9.0293,12.308598 C 106.1705,46.102064 99.81627,47.8384 99.81627,47.8384 v 5.867186 c 0,0 0.0554,0.397151 0.61915,1.070314 0.56606,0.67787 1.1875,0.847656 1.1875,0.847656 v 2.710935 H 88.527209 v -2.650385 c 0,0 0.788226,-0.170657 1.355475,-0.734374 0.562534,-0.564884 0.67773,-1.244146 0.67773,-1.244146 V 27.178241 c 0,0 0.05189,-1.130522 -0.396482,-1.580078 -0.450739,-0.455445 -1.525386,-1.072267 -1.525394,-1.072267 z m 143.255862,0 h 14.05274 v 2.201179 c 0,0 -0.93419,0.393938 -1.34961,0.90234 -0.50841,0.621373 -0.50828,1.072345 -0.39649,1.978513 0.11299,0.900287 3.7257,25.39892 3.83985,26.302739 0.11415,0.903826 0.22327,1.411824 0.44921,2.033205 0.2236,0.615499 1.30079,1.124998 1.30079,1.124998 v 2.277343 h -13.49414 v -2.445317 c 0,0 1.1862,-0.167133 1.58398,-0.734374 0.39542,-0.564884 0.56299,-0.905165 0.45117,-1.806634 -0.11297,-0.902644 -3.32812,-21.449222 -3.32812,-21.449222 l -5.8711,18.175784 H 222.0194 L 216.20495,33.04543 213.2694,53.141138 c 0,0 -0.11324,1.207363 0.33985,1.865231 0.62019,0.903818 1.75195,0.90234 1.75195,0.90234 v 2.425782 h -11.6875 v -2.591795 c 0,0 0.93073,-0.14353 1.60742,-0.935545 0.67669,-0.787316 0.79102,-1.806641 0.79102,-1.806641 l 4.26367,-26.500003 c 0,0 0.25424,-0.989902 -0.0293,-1.439451 -0.29775,-0.475455 -1.89258,-0.875002 -1.89258,-0.875002 v -2.626952 h 13.43555 l 4.85547,14.990235 z m -49.89258,4.742187 c -4.62973,0 -10.84179,2.70496 -10.84179,13.544926 0,10.837609 5.53303,13.546879 10.84179,13.546879 5.30172,0 10.94922,-3.387124 10.94922,-13.546879 0,-10.158564 -6.32184,-13.544918 -10.94922,-13.544926 z m -78.71679,0.373049 c -1.86513,0.0515 -3.35743,0.416018 -3.35743,0.416018 v 15.691405 c 0,0 10.61133,-4.402257 10.61133,-10.611326 0,-4.797875 -4.14536,-5.581978 -7.2539,-5.496097 z m -40.607425,2.562504 -3.615236,10.722655 h 7.453122 z" /></svg>
