<?xml version="1.0" encoding="utf-8"?>
<!-- Generator: Adobe Illustrator 24.1.2, SVG Export Plug-In . SVG Version: 6.00 Build 0)  -->
<svg version="1.2" baseProfile="tiny"
	 id="svg2293" inkscape:version="1.0 (4035a4fb49, 2020-05-01)" sodipodi:docname="Family Computer.svg" xmlns:cc="http://creativecommons.org/ns#" xmlns:dc="http://purl.org/dc/elements/1.1/" xmlns:inkscape="http://www.inkscape.org/namespaces/inkscape" xmlns:rdf="http://www.w3.org/1999/02/22-rdf-syntax-ns#" xmlns:sodipodi="http://sodipodi.sourceforge.net/DTD/sodipodi-0.dtd" xmlns:svg="http://www.w3.org/2000/svg"
	 xmlns="http://www.w3.org/2000/svg" xmlns:xlink="http://www.w3.org/1999/xlink" x="0px" y="0px" width="950.2px" height="172.8px"
	 viewBox="0 0 950.2 172.8" overflow="visible" xml:space="preserve">
<sodipodi:namedview  bordercolor="#666666" borderopacity="1.0" fit-margin-bottom="0" fit-margin-left="0" fit-margin-right="0" fit-margin-top="0" id="base" inkscape:current-layer="layer1" inkscape:cx="584.88252" inkscape:cy="9.4741798" inkscape:document-rotation="0" inkscape:document-units="mm" inkscape:pageopacity="0.0" inkscape:pageshadow="2" inkscape:window-height="1040" inkscape:window-maximized="0" inkscape:window-width="1274" inkscape:window-x="26" inkscape:window-y="0" inkscape:zoom="0.35" pagecolor="#ffffff" showgrid="false">
	</sodipodi:namedview>
<g id="layer1" transform="translate(48.916834,-145.65996)" inkscape:groupmode="layer" inkscape:label="Layer 1">
	<g id="g2248" transform="translate(-207.16189,336.10082)">
		<path id="path1605" sodipodi:nodetypes="ccccccccccc" fill="#FFFFFF" d="M215.8-43.8v-18.6h-57v10.5h47.8v7.5
			c0,9.6-8.9,15.4-16.3,15.4h-25.5v10.8h27.5C205-18.1,215.8-30.1,215.8-43.8L215.8-43.8z"/>
		<path id="path1607-6" fill="#FFFFFF" d="M270.5-60.9v9.1l57.4,5.3v-9.3L270.5-60.9z M270.5-46.6v9.1l57.4,5.3v-9.3L270.5-46.6z
			 M270.5-32.1v9.1l57.4,5.3V-27L270.5-32.1z"/>
		<path id="path1667" sodipodi:nodetypes="ccccccsccccccccc" fill="#FFFFFF" d="M233.1-18.1h-13.8v-9.1h15.6c2.3,0,3.6-1.9,3.6-3.8
			v-6h14.9c2.9,0,4.1-2,4.1-3.6v-1.5h-37.9v-9.2h45.8v13.9c0,5.9-5,9.6-9.4,9.6h-11.2C244.7-23.4,241.2-18.1,233.1-18.1z"/>
		<path id="rect1669" fill="#FFFFFF" d="M331.3-62.6v28.9h8v-28.9H331.3z M379.1-62.6v19.4c0,9-7,14.4-12.6,14.4h-27.4v10.7h25.2
			c8.7,0,22.7-7.3,22.7-22v-22.4L379.1-62.6z"/>
		<rect id="rect1688" x="392.1" y="-45" fill="#FFFFFF" width="54" height="11.2"/>
		<rect id="rect1688-6" x="694.5" y="-45" fill="#FFFFFF" width="56.1" height="9.8"/>
		<path id="rect1712" fill="#FFFFFF" d="M468.6-62.4v10.8h49.6v22.8h-49.6v10.7h49.6h8.4v-10.7v-33.6H468.6z"/>
		<path id="path1706-6" fill="#FFFFFF" d="M579.3-62.6v20.9c0,9-8.5,12.9-14.1,12.9h-34.3v10.7h34.4c8.7,0,21.9-7.3,21.9-22v-22.4
			L579.3-62.6L579.3-62.6z M530.6-62.4v10.8h32.5v-10.8H530.6z"/>
		<path id="path1776" fill="#FFFFFF" d="M591.7-62.6v31.4c0,6.5,5.6,13.1,13.7,13.1h43.8v-10.7h-44.5c-3.1,0-4.8-2.1-4.8-4.8v-7
			h49.4v-7.6c-2,2.4-5,4-8.3,4c-4.7,0-8.7-3.1-10.1-7.3H600v-11.2L591.7-62.6L591.7-62.6z M640.9-62.6c-4.3,0-7.8,3.5-7.8,7.8
			s3.5,7.8,7.8,7.8s7.8-3.5,7.8-7.8S645.2-62.6,640.9-62.6z M640.9-59.1c2.4,0,4.2,1.9,4.2,4.2c0,2.4-1.9,4.2-4.2,4.2
			c-2.4,0-4.2-1.9-4.2-4.2S638.6-59.1,640.9-59.1z"/>
		<g id="g1804">
			<path id="path1806" fill="#FFFFFF" d="M640.9-62.6c-4.3,0-7.8,3.5-7.8,7.8s3.5,7.8,7.8,7.8s7.8-3.5,7.8-7.8
				S645.2-62.6,640.9-62.6z M640.9-59.1c2.4,0,4.2,1.9,4.2,4.2c0,2.4-1.9,4.2-4.2,4.2c-2.4,0-4.2-1.9-4.2-4.2
				C636.7-57.2,638.6-59.1,640.9-59.1z"/>
		</g>
		<path id="rect1813" fill="#FFFFFF" d="M657.4-50.1v9.6h25.9v11.8h-30.6V-18h46.5v-10.7h-9.7V-50L657.4-50.1z"/>
		<path id="path1834" sodipodi:nodetypes="ccccccccccccccscccc" fill="#FFFFFF" d="M753.8-48.3v10.7h3.2c4.4,0,12.2-6.7,12.2-14.1
			h34.2v7h-33.6v10.6h28.7v1c0,2.2-4.4,4.3-7.3,4.3h-32.9v10.7H790c9.7,0,21.5-7.9,21.5-21.2v-23.2h-48.2v2.3
			C763.2-56.4,758.9-50.1,753.8-48.3L753.8-48.3z"/>
		<path id="rect1840" fill="#FFFFFF" d="M158.2-189.9v17.8v21.6v17.8v37.6h18.5v-37.6h31v-17.8h-31v-21.6h31v-17.8h-31H158.2z"/>
		<path id="path1859" fill="#FFFFFF" d="M251.4-189.9l-65.2,94.8h20.7l10-14.7h32v14.7h17.3v-94.8H251.4z M249-157.2v30.4h-20.5
			L249-157.2z"/>
		<path id="path1894-2" sodipodi:nodetypes="ccccccccccccccccc" fill="#FFFFFF" d="M348.6-189.9h20.9v94.8H351v-47.7h-1.7
			l-20.5,47.7h-8.3h-8.3l-20.5-47.7H290v47.7h-18.5v-94.8h20.9l28.1,65.2L348.6-189.9z"/>
		<path id="rect1840-6" sodipodi:nodetypes="ccccc" fill="#FFFFFF" d="M374.3-189.9H392v94.8h-17.7V-189.9z"/>
		<path id="rect1840-0" fill="#FFFFFF" d="M397-189.9v76.8v18h18.5h24.2v-18h-24.2v-76.8H397z"/>
		<path id="path1942" sodipodi:nodetypes="ccccccccccc" fill="#FFFFFF" d="M449.3-95.1v-36l-29.7-58.8h19.5l19.2,37.7l19.5-37.7
			h19.5l-29.7,58.8v36h-9C458.6-95.1,449.3-95.1,449.3-95.1z"/>
		<path id="path1894-2-6" sodipodi:nodetypes="ccccccccccccccccc" fill="#FFFFFF" d="M774.6-189.9h20.9v94.8H777v-47.7h-1.7
			l-20.5,47.7h-8.3h-8.3l-20.5-47.7H716v47.7h-18.5v-94.8h20.9l28.1,65.2L774.6-189.9z"/>
		<path id="path1980" fill="#FFFFFF" d="M645-190.4c-26.3,0-47.7,21.7-47.7,48.4c0,26.8,21.3,48.4,47.7,48.4
			c26.3,0,47.7-21.7,47.7-48.4l0,0C692.7-168.8,671.4-190.4,645-190.4L645-190.4z M644.9-173.3L644.9-173.3
			c16.9,0,30.6,14,30.6,31.4c0,17.3-13.7,31.4-30.6,31.4c-16.9,0-30.6-14-30.6-31.4l0,0C614.3-159.2,628-173.3,644.9-173.3
			L644.9-173.3z"/>
		<path id="path1980-2" fill="#FFFFFF" d="M554.5-190.4c-26.3,0-47.7,21.6-47.7,48.3s21.3,48.3,47.7,48.3
			c17.9,0,34.4-10.2,42.5-26.4h-20.6c-5.8,6.1-13.7,9.5-22,9.5c-16.9,0-30.6-14-30.6-31.3s13.7-31.2,30.6-31.3l0,0
			c8,0,15.7,3.2,21.5,9h21C588.6-180.4,572.3-190.4,554.5-190.4L554.5-190.4z"/>
		<path id="rect2037" fill="#FFFFFF" d="M831-189.9h-30.4v94.8h18.5v-33.3H831c11,0,21.2-5.9,26.7-15.4s5.5-21.3,0-30.8
			C852.2-184.1,842-189.9,831-189.9L831-189.9z M831.6-171.9c4.4,0,8.6,2.4,10.8,6.2c2.2,3.9,2.2,8.6,0,12.4
			c-2.2,3.9-6.3,6.2-10.8,6.2h-12.5V-172L831.6-171.9z"/>
		<path id="rect2037-4" fill="#FFFFFF" d="M1077.6-189.9L1077.6-189.9H1040v94.8h18v-48.7l9.3,15.4l20,33.3h19.8l-20-34.6l-0.1-0.1
			c7.2-2.3,13.5-7.2,17.4-13.9c5.5-9.5,5.5-21.3,0-30.8C1098.8-184.1,1088.6-189.9,1077.6-189.9L1077.6-189.9z M1078.2-171.9
			c4.4,0,8.6,2.4,10.8,6.2c2.2,3.9,2.2,8.6,0,12.4c-2.2,3.9-6.3,6.2-10.8,6.2H1058V-172L1078.2-171.9z"/>
		<path id="path2125-4" sodipodi:nodetypes="ssccccssccccs" fill="#FFFFFF" d="M890.7-114.4c3.8,2.2,8.1,2.2,12,0
			c3.8-2.2,6.2-6.3,6.2-10.7v-64.8h18.3v65c0,10.9-5.9,20.8-15.4,26.2c-9.4,5.4-21.1,5.4-30.5,0S866-114,866-124.9v-65h18.4v64.8
			C884.5-120.7,886.9-116.6,890.7-114.4L890.7-114.4z"/>
		<path id="rect2163" fill="#FFFFFF" d="M932-189.9v18.5h15.3v76.3h18.5v-76.3h15.6v-18.5h-15.6h-18.5H932z"/>
		<path id="rect1840-7" fill="#FFFFFF" d="M986-189.9v17.8l0,0v21.6l0,0v17.8l0,0v19.7v17.8h18.5h30.1V-113h-30.1v-19.7h30.1v-17.8
			h-30.1v-21.6h30.1v-17.8H986z"/>
		<path id="rect2217" sodipodi:nodetypes="ccccc" fill="#FFFFFF" d="M158.2-83.5h941.9l-10.4,9.7H158.2V-83.5z"/>
	</g>
</g>
</svg>
