<?xml version="1.0" encoding="utf-8"?>
<!-- Generator: Adobe Illustrator 24.1.2, SVG Export Plug-In . SVG Version: 6.00 Build 0)  -->
<svg version="1.1"
	 id="svg2" inkscape:version="0.91 r13725" sodipodi:docname="psx.svg" xmlns:cc="http://creativecommons.org/ns#" xmlns:dc="http://purl.org/dc/elements/1.1/" xmlns:inkscape="http://www.inkscape.org/namespaces/inkscape" xmlns:rdf="http://www.w3.org/1999/02/22-rdf-syntax-ns#" xmlns:sodipodi="http://sodipodi.sourceforge.net/DTD/sodipodi-0.dtd" xmlns:svg="http://www.w3.org/2000/svg"
	 xmlns="http://www.w3.org/2000/svg" xmlns:xlink="http://www.w3.org/1999/xlink" x="0px" y="0px" width="570.1px" height="113px"
	 viewBox="0 0 570.1 113" enable-background="new 0 0 570.1 113" xml:space="preserve">
<sodipodi:namedview  bordercolor="#666666" borderopacity="1" gridtolerance="10" guidetolerance="10" id="namedview14" inkscape:current-layer="svg2" inkscape:cx="129.10015" inkscape:cy="56.515999" inkscape:pageopacity="0" inkscape:pageshadow="2" inkscape:window-height="480" inkscape:window-width="640" inkscape:zoom="0.93579987" objecttolerance="10" pagecolor="#ffffff" showgrid="false">
	</sodipodi:namedview>
<g>
	<path id="path2998" fill="#FFFFFF" d="M166.9,28.9v28.8v28.8h5h5V60.8V35.1h6.2c4.5,0,6.5,0.1,7.2,0.4c1.5,0.6,3,2.5,3.7,4.5
		c0.3,1,0.6,3.3,0.7,5.8c0.2,5.2-0.4,8.4-2,10.4c-1.6,2.2-2.6,2.5-7.3,2.5h-4v3.1v3.1l6.3-0.1l6.3-0.1l2.2-1c4-1.9,7-5.8,8.2-10.8
		c0.7-2.8,0.7-9.1,0-12.1c-0.6-2.9-2-5.8-3.5-7.6c-0.6-0.7-1.9-1.8-2.7-2.3c-2.9-1.9-4.1-2-18.4-2C179.8,28.9,166.9,28.9,166.9,28.9
		z M211.4,28.9v28.8v28.8h5h5V57.7V28.9h-5H211.4z M337.8,28.9c-4.5,0-9.2,0.2-10.3,0.3c-2.6,0.4-5.7,1.8-7.4,3.4
		c-1.7,1.6-3.2,3.9-4,6.4c-0.5,1.5-0.7,3-0.7,5.9c0,4.1,0.3,5.9,1.7,8.6c0.9,1.8,3.4,4.4,5,5.4c1.9,1.1,4.4,1.7,8.7,2.1
		c3.3,0.3,4,0.4,5.1,1.1c0.8,0.6,1.6,1.5,2.2,2.7c0.9,1.8,0.9,2.1,0.9,6c0,3.8-0.1,4.2-0.9,5.8c-0.6,1.1-1.4,2-2.2,2.6l-1.4,0.9
		l-8.6,0.1l-8.6,0.1v3.1v3.1h9.7c5.9,0,10.4-0.1,11.5-0.4c4-0.8,7.3-3.4,8.9-6.9c1.4-3,1.8-6,1.7-10.6c-0.2-4.8-0.9-7.4-2.8-10.3
		c-2.4-3.6-5.1-4.8-11.9-5.4c-2.5-0.2-5.1-0.6-5.7-0.9c-1.4-0.6-2.7-2.1-3.3-3.7c-0.6-1.6-0.6-6.4,0-8.4c0.6-2,2.3-3.8,4.1-4.3
		c0.9-0.3,3.9-0.4,8.8-0.4h7.5V32v-3.1L337.8,28.9L337.8,28.9z M453.6,28.9v4.2v4.2h5h5v-4.2v-4.2h-5
		C458.6,28.9,453.6,28.9,453.6,28.9z M356.7,35.4l0.1,20.7c0.1,20.4,0.1,20.8,0.8,22.6c0.4,1,1.2,2.6,1.9,3.4c1.3,1.8,3,3,5.1,3.7
		c1,0.4,2.8,0.5,6.1,0.5l4.6,0v-3.1v-3.1h-3c-2.9,0-3.1,0-3.9-0.9c-0.5-0.5-1-1.6-1.2-2.5c-0.2-1-0.3-6.4-0.3-14.8l0.1-13.2l5.4-0.1
		l5.4-0.1v-3.1v-3.1h-5.5h-5.5V39v-3.6h-5H356.7L356.7,35.4z M426.3,35.4v20.5c0,19.8,0,20.5,0.7,22.5c0.8,2.3,2.3,4.7,4,6
		c0.6,0.5,1.9,1.2,2.9,1.5c1.3,0.4,2.7,0.6,6.2,0.6l4.5,0v-3.1v-3.1h-2.9c-2.4,0-3-0.1-3.7-0.7c-0.5-0.4-1-1.2-1.2-1.9
		c-0.2-0.7-0.3-6.6-0.3-15.1V48.7h5.5h5.5l-0.1-3l-0.1-3l-5.4-0.1l-5.4-0.1V39v-3.6h-5H426.3L426.3,35.4z M417.4,42.5l-10.8,0.2
		c-11.6,0.2-12.8,0.3-16.2,2c-3.8,1.9-6.4,5.7-7.6,10.8c-0.5,2.1-0.6,4-0.6,12.1c0,9.2,0,9.7,0.7,11.4c1.4,3.6,3.6,5.8,6.7,6.8
		c1.4,0.5,2.8,0.6,7.5,0.6l5.8,0v-3.1v-3.1h-4c-3.8,0-4.1,0-5-0.8c-0.6-0.5-1.1-1.3-1.3-2.3c-0.5-1.8-0.5-15.9,0-19.4
		c0.6-4.9,1.7-7.1,4-8.4c0.8-0.4,2.1-0.6,6-0.7l5-0.1v18.9v18.9h5.2h5.2V74.3c0-6.7-0.1-16.6-0.2-22L417.4,42.5z M264.7,42.5
		l-10.8,0.2c-11.7,0.2-13.4,0.4-16.6,2.1c-3.7,2-6.4,5.9-7.5,11.1c-0.7,3.3-1,16.8-0.5,20.1c0.5,2.8,1.8,5.7,3.4,7.3
		c1.2,1.2,3.1,2.4,4.7,2.9c0.4,0.1,3.5,0.3,6.7,0.3l5.9,0v-3.1v-3.1h-4.2c-4.7,0-5.3-0.2-6.2-2.2c-0.4-0.9-0.5-2.7-0.6-7.4
		c-0.1-6.8,0.3-14.1,1.1-16.5c0.7-2.2,1.9-3.9,3.3-4.6c1.1-0.5,2-0.6,6.1-0.6l4.9,0l0.1,18.8l0.1,18.8h5h5v-22L264.7,42.5
		L264.7,42.5z M275.6,42.6c-2.9,0-5.3,0-5.3,0.1c0,0,3.3,9.9,7.4,21.8l7.4,21.7L280.9,97c-2.3,5.9-4.2,10.8-4.2,10.9s2,0.1,4.4,0
		l4.4-0.1l13-32.5c7.1-17.9,13-32.5,13-32.6c0,0-2.1-0.1-4.7-0.1c-3.4,0-4.8,0.1-4.9,0.4c-0.1,0.2-2.6,6.5-5.5,14
		c-2.9,7.5-5.4,13.7-5.6,13.7c-0.2,0.1-2.5-6.3-5.1-14l-4.8-14.2C280.9,42.6,275.6,42.6,275.6,42.6z M453.6,42.6v21.9v21.9h5h5V64.5
		V42.6h-5H453.6z M514.5,42.7l-0.1,21.9h0l-0.1,21.9h5.2h5.2V67.6V48.7l5,0.1c5.3,0.1,6.1,0.4,7.6,1.9c1.2,1.2,2,3.5,2.4,6.4
		c0.2,1.5,0.3,8.6,0.3,16v13.3h5h5l0-12.9c0-13.7-0.2-17-1.6-20.7c-1.8-5.1-5.1-8-10.5-9.5c-1.8-0.5-3.7-0.6-12.8-0.6L514.5,42.7
		L514.5,42.7z M489.1,42.8c-2.8,0-5.7,0.4-7.7,1.1c-2.7,0.9-4.4,2-6.1,3.9c-1.9,2.1-3.2,4.8-4,8.3c-0.5,2.1-0.6,3.8-0.6,8.9
		c0,5.4,0.1,6.7,0.7,8.8c1,3.6,2.3,6,4.2,8c1.9,1.9,4.7,3.4,7.9,4.1c1.4,0.3,3.4,0.4,6.5,0.3c5.2-0.1,7.7-0.8,10.8-2.9
		c2.6-1.8,4.5-4.5,5.6-8c1.6-5,1.8-13.2,0.6-19.2c-0.6-2.9-2-6.1-3.6-8.1c-1.5-1.8-3.9-3.4-6.6-4.3
		C494.8,43.2,491.9,42.8,489.1,42.8L489.1,42.8z M489.2,48.9c1.5,0,3,0.3,4.1,0.9c1.5,0.8,2.5,2.1,3.3,4.6c0.5,1.7,0.7,3.2,0.8,8.6
		c0.2,7.1-0.2,10.5-1.3,13c-0.8,1.8-2,3.2-3.4,3.8c-0.6,0.3-2.2,0.4-3.6,0.4c-2.1,0-2.8-0.1-4-0.8c-0.9-0.5-1.8-1.3-2.3-2.2
		c-1.5-2.4-2-5.5-2-12.5c0-6.7,0.3-9.3,1.6-12.1c0.4-0.9,1.3-2,1.9-2.5C485.4,49.4,487.3,48.9,489.2,48.9L489.2,48.9z"/>
	<path id="path3775" fill="#FFFFFF" d="M560.4,83.9h0.8v-2.8h1.8c0.5,0,0.8,0.1,0.9,0.2c0.1,0.1,0.2,0.5,0.3,1l0.1,0.8
		c0,0.2,0,0.3,0.1,0.4c0,0.1,0.1,0.2,0.1,0.3h0.8v-0.2c-0.1-0.1-0.1-0.1-0.1-0.2c0-0.1-0.1-0.2-0.1-0.4l-0.1-1c0-0.5-0.1-0.8-0.2-1
		c-0.1-0.3-0.3-0.4-0.6-0.5c0.3-0.1,0.6-0.2,0.7-0.5c0.2-0.3,0.3-0.6,0.3-1c0-0.3-0.1-0.6-0.2-0.9c-0.1-0.3-0.4-0.5-0.6-0.6
		c-0.2-0.1-0.5-0.2-0.8-0.2c-0.2,0-0.5,0-0.9,0h-2.2L560.4,83.9L560.4,83.9z M561.2,80.4v-2.3h1.6c0.3,0,0.5,0,0.7,0
		c0.2,0,0.4,0.1,0.5,0.2c0.1,0.1,0.3,0.2,0.3,0.4c0.1,0.2,0.1,0.3,0.1,0.5c0,0.4-0.1,0.7-0.4,0.9c-0.2,0.2-0.6,0.3-1.2,0.3
		L561.2,80.4L561.2,80.4z"/>
	<path id="path3004" fill="none" stroke="#FFFFFF" stroke-miterlimit="10" d="M568.2,80.6c0,3-2.4,5.4-5.4,5.4c-3,0-5.4-2.4-5.4-5.4
		s2.4-5.4,5.4-5.4C565.8,75.3,568.2,77.7,568.2,80.6z"/>
	<g id="g8" transform="translate(-61.6856, -312.868)">
		<path id="path7" fill="#FFFFFF" d="M143.2,336.4l-0.1,89.5l-24-7.8V312.9l30.6,8.1c19.6,5.3,31.6,15.5,31.4,33.5
			c-0.2,20.9-9.8,29.3-28.7,23.8v-41.2C152.5,332.1,143.2,331.8,143.2,336.4L143.2,336.4z"/>
		<path id="path9" fill="#FFFFFF" d="M108.1,400.7l-11.3,3.8c-7.3,2.5-13.6-3.4-6.8-5.9l5.5-1.9l-20.6-6.5
			c-6.3,2.1-12.3,6.7-11.9,13.2c0.4,6.5,15.3,8.1,26.8,9.9c10.7,1.8,20.5,0.8,29.4-2.3v-6.7L108.1,400.7L108.1,400.7z M143.3,425.9
			l21-7.3l-21.2-6.7v13.6L143.3,425.9L143.3,425.9z"/>
		<path id="path11" fill="#FFFFFF" d="M199.1,406.3l0.4-0.1c9.2-3.2,13.1-7.7,12.1-11.9c-1.6-7-12.8-10.8-30-12.1
			c-12.4-0.9-24.6,1.9-36.5,5.9l-1.9,0.7l21.4,6.6l12.5-4.2c13.1-2.4,18.3,1.9,5.8,5.9l-6.2,2.1L199.1,406.3L199.1,406.3z
			 M119.1,375.3l-9.5,3.2l9.5,2.9V375.3L119.1,375.3z"/>
		<path id="path13" fill="#FFFFFF" d="M164.3,418.6l34.8-12.3l-22.6-7l-33.3,11.4v1.2L164.3,418.6L164.3,418.6z M119.1,397l-11,3.7
			l11,3.5V397L119.1,397z M143.1,402.8v-13.9l21.4,6.6L143.1,402.8L143.1,402.8z M95.4,396.7l23.7-8.5v-6.8l-9.5-2.9l-34.3,11.6
			c-0.1,0-0.3,0.1-0.5,0.1L95.4,396.7L95.4,396.7z"/>
	</g>
</g>
</svg>
