<?xml version="1.0" encoding="utf-8"?>
<!-- Generator: Adobe Illustrator 24.1.2, SVG Export Plug-In . SVG Version: 6.00 Build 0)  -->
<svg version="1.1"
	 id="svg873" inkscape:version="1.0 (4035a4fb49, 2020-05-01)" sodipodi:docname="Super Famicom.svg" xmlns:cc="http://creativecommons.org/ns#" xmlns:dc="http://purl.org/dc/elements/1.1/" xmlns:inkscape="http://www.inkscape.org/namespaces/inkscape" xmlns:rdf="http://www.w3.org/1999/02/22-rdf-syntax-ns#" xmlns:sodipodi="http://sodipodi.sourceforge.net/DTD/sodipodi-0.dtd" xmlns:svg="http://www.w3.org/2000/svg"
	 xmlns="http://www.w3.org/2000/svg" xmlns:xlink="http://www.w3.org/1999/xlink" x="0px" y="0px" width="1233.9px"
	 height="166.4px" viewBox="0 0 1233.9 166.4" enable-background="new 0 0 1233.9 166.4" xml:space="preserve">
<sodipodi:namedview  bordercolor="#666666" borderopacity="1.0" fit-margin-bottom="0" fit-margin-left="0" fit-margin-right="0" fit-margin-top="0" id="base" inkscape:current-layer="layer1" inkscape:cx="1044.829" inkscape:cy="-16.420354" inkscape:document-rotation="0" inkscape:document-units="mm" inkscape:pageopacity="0.0" inkscape:pageshadow="2" inkscape:window-height="1017" inkscape:window-maximized="1" inkscape:window-width="1920" inkscape:window-x="-8" inkscape:window-y="-8" inkscape:zoom="0.35" pagecolor="#ffffff" showgrid="false">
	</sodipodi:namedview>
<g id="g1686">
	<path id="path865" fill="#FFFFFF" d="M265.8,87.9V74.7h42c4.7,0,7-2,7-6.1c0-4-2.3-6-7-6h-21c-7.4,0-13-1.6-16.9-4.9
		c-3.9-3.3-5.8-8.1-5.8-14.3s1.9-10.9,5.7-14.2c3.8-3.3,9.3-5,16.4-5h47.2v13.3h-41.8c-4.8,0-7.2,2-7.2,5.9c0,4,2.4,6,7.2,6H313
		c7.2,0,12.7,1.7,16.4,5c3.8,3.3,5.7,8,5.7,14.2c0,6.3-1.9,11.1-5.7,14.4c-3.8,3.3-9.2,4.9-16.4,4.9H265.8z"/>
	<path id="path867" fill="#FFFFFF" d="M369.6,87.9c-8.6,0-15.4-2.1-20.3-6.3c-4.9-4.2-7.4-10.9-7.4-20.1V24.2h20.3v37.4
		c0,4.4,1.1,7.6,3.4,9.6s5.3,2.9,8.9,2.9h17.1v-50H412v63.7L369.6,87.9z"/>
	<path id="path869" fill="#FFFFFF" d="M423.1,87.9V24.2h42c9.5,0,16.5,1.9,20.9,5.7c4.5,3.8,6.7,8.9,6.7,15.5
		c0,6.5-2.2,11.6-6.6,15.4s-11.4,5.6-21,5.6h-21.6v21.5H423.1z M471.3,45.4c0-5.3-3.3-8-9.8-8h-18v15.9h18
		C468,53.3,471.3,50.6,471.3,45.4z"/>
	<path id="path871" fill="#FFFFFF" d="M566.5,37.4h-26.2c-6.4,0-11,1-13.8,2.9c-2.8,2-4.5,4.9-5,8.8h45v13.1h-45
		c0.2,3.8,1.7,6.8,4.5,9.1c2.8,2.2,7.6,3.3,14.3,3.3h26.2v13.3h-28.8c-12.2,0-21.5-2.7-27.7-8c-6.2-5.4-9.3-13.3-9.3-23.8
		s3.1-18.5,9.3-23.8c6.2-5.4,15.4-8,27.7-8h28.8V37.4z"/>
	<path id="path873" sodipodi:nodetypes="ssccsscccccscsccccc" fill="#FFFFFF" d="M626.3,43.3c0-5.8-3.3-5.9-9.8-5.9h-20.7v14.9h20.7
		C623,52.2,626.3,49.2,626.3,43.3L626.3,43.3z M614.2,65.3h-18.4v22.6h-20.3V24.2h46c8.9,0,15.5,2,19.8,6.1s6.5,6.5,6.5,13
		s-2.1,11.8-6.4,15.9c-2.2,2.1-4.9,3.6-8.3,4.6l17.5,24.1h-21.2L614.2,65.3z"/>
	<path id="path875" fill="#FFFFFF" d="M689.2,56c0-10.5,3.1-18.5,9.3-23.8c6.2-5.4,15.4-8,27.7-8H755v13.2h-26.2
		c-6.4,0-11,1-13.8,2.9c-2.8,2-4.5,4.9-5,8.8h45v13.1h-45.4v25.7h-20.3L689.2,56L689.2,56z"/>
	<path id="path877" fill="#FFFFFF" d="M783.9,87.9c-7.5,0-13.3-1.7-17.3-5.2c-4.1-3.5-6.1-8.3-6.1-14.5c0-6.1,2-10.9,6.1-14.4
		s9.8-5.2,17.3-5.2h28.2v-2.3c0-3.2-0.8-5.5-2.3-6.8s-4.1-2-7.9-2h-36.6V24.2h37.4c10.5,0,18.1,2,22.7,6c4.7,4,7,10.5,7,19.6v38.1
		H783.9z M812.1,61.6h-22.8c-5.5,0-8.2,2.2-8.2,6.6s2.7,6.6,8.2,6.6h22.8V61.6z"/>
	<path id="path879" fill="#FFFFFF" d="M919.1,87.9V49.7c0-4.3-1.1-7.3-3.2-9.1c-2.1-1.8-5.7-2.8-10.6-2.8h-4.2v50h-20.3v-50h-17.1
		v50h-20.3V24.2h65.5c10.7,0,18.5,2.1,23.4,6.3s7.3,10.9,7.3,20.1v37.3L919.1,87.9z"/>
	<path id="path881" fill="#FFFFFF" d="M965.7,24.2v63.7h-20.3V24.2H965.7z"/>
	<path id="path883" fill="#FFFFFF" d="M1040.9,37.6h-24.4c-7.4,0-12.8,1.4-16.1,4.3c-3.3,2.9-5,7.6-5,14.1s1.6,11.2,4.9,14.1
		c3.3,2.9,8.6,4.3,16,4.3h24.5v13.5h-29.6c-12,0-21-2.7-27-8c-6.1-5.4-9.1-13.3-9.1-23.8s3-18.4,9.1-23.8s15.1-8,27-8h29.6
		L1040.9,37.6L1040.9,37.6z"/>
	<path id="path885" fill="#FFFFFF" d="M1124.9,57c0,5.5-0.9,10.3-2.8,14.3c-1.8,4-4.5,7.3-7.9,9.9s-7.6,4.5-12.6,5.8
		c-4.9,1.2-10.5,1.9-16.8,1.9s-11.9-0.6-16.8-1.9s-9.1-3.2-12.5-5.8c-3.4-2.6-6.1-5.9-7.9-9.9s-2.8-8.8-2.8-14.3s0.9-10.3,2.8-14.3
		s4.5-7.3,7.9-9.9s7.6-4.5,12.5-5.8s10.6-1.9,16.8-1.9c6.3,0,11.9,0.6,16.8,1.9c4.9,1.2,9.1,3.2,12.6,5.8s6.1,5.9,7.9,9.9
		C1124,46.7,1124.9,51.4,1124.9,57z M1084.9,75.3c13.1,0,19.7-6.1,19.7-18.4s-6.6-18.4-19.7-18.4s-19.7,6.1-19.7,18.4
		S1071.7,75.3,1084.9,75.3z"/>
	<path id="path887" fill="#FFFFFF" d="M1209.4,87.9V49.7c0-4.3-1.1-7.3-3.2-9.1c-2.1-1.8-5.7-2.8-10.6-2.8h-4.2v50H1171v-50h-17.1
		v50h-20.3V24.2h65.5c10.7,0,18.5,2.1,23.4,6.3s7.3,10.9,7.3,20.1v37.3L1209.4,87.9z"/>
	<path id="path902" fill="#FFFFFF" d="M265.1,108.2V119l37.2,0.1v3.9c0,11.9-12.5,17.4-22.7,17.4h-14.8v10.8h16.3
		c6.8,0,14.3-3.3,20-8.6l5.8,8.6h13.8l-13.6-16.6c1.8-3.4,2.8-7.3,2.8-11.3v-15.1C309.9,108.2,265.1,108.2,265.1,108.2z"/>
	<rect id="rect910" x="316.2" y="124.6" fill="#FFFFFF" width="39.5" height="9.6"/>
	<rect id="rect910-0" x="417.7" y="124.6" fill="#FFFFFF" width="39.5" height="9.6"/>
	<path id="path902-2" sodipodi:nodetypes="ccccccccccc" fill="#FFFFFF" d="M515.9,119.1v6.7c0,11.9-9.2,14.6-19.5,14.6h-21.6v10.8
		h22.4c13,0,26.4-8,26.4-24v-19h-52.3V119L515.9,119.1z"/>
	<path id="path1667" sodipodi:nodetypes="ccccccsccccccccc" fill="#FFFFFF" d="M543,151.2h-11.5v-9.8h12.8c2.3,0,3.6-1.9,3.6-3.8
		v-4.3h15.4c2.9,0,4.1-2,4.1-3.6v-2.4h-38.5V118h45.4v12.8c0,5.9-6,10.7-10.4,10.7h-10.2C553.7,145.9,551.2,151.2,543,151.2z"/>
	<path id="path1567-3" sodipodi:nodetypes="ccccc" fill="#FFFFFF" d="M634.8,113.1l-54.7-6v9.9l54.7,6V113.1z"/>
	<path id="path1567-3-9" sodipodi:nodetypes="ccccc" fill="#FFFFFF" d="M634.8,127.5l-54.7-6v9.9l54.7,6V127.5z"/>
	<path id="path1567-3-5" sodipodi:nodetypes="ccccc" fill="#FFFFFF" d="M634.8,141.5l-54.7-6v9.9l54.7,6V141.5z"/>
	<path id="path1605" sodipodi:nodetypes="ccccccccc" fill="#FFFFFF" d="M360.7,151.2h-4.4v-10.8h3c10,0,14.9-6.9,14.9-14.6V108h8.2
		v19.9C382.6,142.6,373.9,151.2,360.7,151.2L360.7,151.2z"/>
	<path id="path1605-2" sodipodi:nodetypes="ccccccccc" fill="#FFFFFF" d="M411.4,151.2h4.4v-10.8h-3c-10,0-14.9-6.9-14.9-14.6V108
		h-8.2v19.9C389.6,142.6,398.2,151.2,411.4,151.2L411.4,151.2z"/>
	<path id="path1806" fill="#FFFFFF" d="M408.5,107c-4.3,0-7.9,3.5-7.9,7.9c0,4.3,3.6,7.9,7.9,7.9s7.9-3.6,7.9-7.9
		S412.9,107,408.5,107z M408.5,110.6c2.4,0,4.3,1.9,4.3,4.3s-1.9,4.3-4.3,4.3s-4.3-1.9-4.3-4.3C404.3,112.5,406.2,110.6,408.5,110.6
		z"/>
	<path id="rect1712" sodipodi:nodetypes="ccccccccccc" fill="#FFFFFF" d="M640.6,107.7v11.6H686v20.5h-45.5v11.3h46.3h8.4v-10.7
		v-32.8L640.6,107.7z"/>
	<path id="path1706-6" sodipodi:nodetypes="cssccssccccccc" fill="#FFFFFF" d="M747.4,107.4v19.3c0,9-10,13.8-15.6,13.8h-31v10.7
		h33.4c8.7,0,21.1-7.3,21.1-22v-21.7L747.4,107.4z M700.9,107.7v11.7h33.5v-11.7H700.9z"/>
</g>
<g id="g1761">
	<path id="path1702" fill="#FFFFFF" d="M190.4,43.6c-5.7,0-11.3,1.1-16.5,3.4c-15.5,6.6-25.6,21.9-25.5,38.9
		c10.8,0.1,21.2,4,28.9,11c8.6,7.8,13.1,18.8,12.3,29.9l1,0.9c17,0,32.4-10.4,38.8-26.2s2.7-33.9-9.4-45.9
		C212,48,201.4,43.6,190.4,43.6z"/>
	<path id="path1702-9" fill="#FFFFFF" d="M106.7,1.8C101,1.8,95.3,3,90.1,5.2c-15.5,6.6-25.6,21.9-25.5,38.9
		c10.8,0.1,21.2,4,28.9,11c8.6,7.8,13.1,18.8,12.3,29.9l1,0.9c17,0,32.4-10.4,38.8-26.2s2.7-33.9-9.4-45.9
		C128.2,6.2,117.7,1.8,106.7,1.8L106.7,1.8z"/>
	<ellipse id="path1724" fill="#FFFFFF" cx="53.5" cy="98" rx="48.1" ry="24.1"/>
	<ellipse id="path1724-2" fill="#FFFFFF" cx="137.2" cy="140.1" rx="48.1" ry="24.1"/>
</g>
</svg>
